<svg width="227" height="10" viewBox="0 0 227 10" fill="none" xmlns="http://www.w3.org/2000/svg">
<path d="M12.3772 1.164V3.552H8.98122V9.48H4.72122L4.33722 9.096H4.21722V3.552H1.33722L0.929219 3.168L0.905219 3.192H0.833219V0.659999H11.9932V0.779999L12.3772 1.164ZM8.40522 8.904V3H11.8012V0.852H1.02522V3H4.40922V8.904H8.40522ZM4.57722 2.832H1.45722V1.284H11.6332V2.832H8.23722V8.736H4.84122V3.168L4.57722 2.904V2.832ZM16.9247 3.948L17.1887 4.212H20.8127V1.284H24.2087V8.736H20.8127V5.4L20.5487 5.136V5.064H16.8527V8.736H13.4807V1.284H16.8527V3.948H16.9247ZM17.0207 3.78V0.852H13.0487V8.904H17.0207V5.232H20.3807V8.904H24.3767V0.852H20.3807V3.78H17.0207ZM17.2127 0.779999L17.5967 1.164V3.588H20.1887V0.659999H24.5687V0.779999L24.9527 1.164V9.48H20.6927L20.3087 9.096H20.1887V5.784H17.5967V9.48H13.3607L12.9767 9.096H12.8567V0.659999H17.2127V0.779999ZM29.4269 5.184V6.9H29.4989L29.7629 7.164H35.7749V8.736H26.0549V1.284H35.7749V2.832H29.4269V4.068H29.4989L29.7629 4.332H35.7629V5.184H29.4269ZM29.5949 3H35.9429V0.852H25.6229V8.904H35.9429V6.732H29.5949V5.352H35.9309V3.9H29.5949V3ZM30.1709 5.904V6.564H36.1349V6.66L36.5189 7.044V9.48H25.9349L25.5509 9.096H25.4309V0.659999H36.1349V0.779999L36.5189 1.164V3.528H30.1709V3.708H36.1229V3.828L36.5069 4.212V5.904H30.1709ZM54.1233 1.512V1.56L54.5073 1.932V8.604L53.6553 9.48H42.9153L42.5313 9.096H42.4113V0.659999H53.2473L54.1233 1.512ZM42.6033 8.904H53.2473L53.9553 8.172L53.9313 8.148V1.512L53.2233 0.827999L53.1993 0.852H42.6033V8.904ZM53.7633 1.608V8.1L53.1513 8.736H43.0353V1.284H53.4273L53.7633 1.608ZM46.4073 2.832V6.9H46.4793L46.7433 7.164H50.3673V3.168L50.1033 2.904V2.832H46.4073ZM46.5753 3H49.9353V6.732H46.5753V3ZM49.7433 6.564V3.552H47.1513V6.564H49.7433ZM62.3176 3.552H59.7256V4.344H62.3176V3.552ZM59.1496 4.536V3H62.5096V4.536H59.1496ZM62.6776 2.904V2.832H58.9816V4.704H59.0536L59.3176 4.968H62.9416V3.168L62.6776 2.904ZM62.6776 5.796H58.9816V8.736H55.6096V1.908L56.2456 1.284H66.0016L66.3376 1.608V8.736H62.9416V6.132L62.6776 5.868V5.796ZM62.5096 8.904H66.5056V1.512L65.7976 0.827999L65.7736 0.852H55.8616L55.1776 1.524V8.904H59.1496V5.964H62.5096V8.904ZM62.3176 9.096V6.54H59.7256V9.48H55.4896L55.1056 9.096H54.9856V1.524L55.8616 0.659999H65.8216L66.6976 1.512V1.56L67.0816 1.932V9.48H62.8216L62.4376 9.096H62.3176ZM73.5478 2.832V6.9H73.6198L73.8838 7.164H75.5158V8.736H68.1838V7.164H70.1518V3.168L69.8878 2.904V2.832H68.1838V1.284H75.5158V2.832H73.5478ZM73.7158 3H75.6838V0.852H67.7518V3H69.7198V6.732H67.7518V8.904H75.6838V6.732H73.7158V3ZM69.5278 6.564V3.552H68.0638L67.6558 3.168L67.6318 3.192H67.5598V0.659999H75.8758V0.779999L76.2598 1.164V3.552H74.2678V6.564H75.8758V6.66L76.2598 7.044V9.48H68.0638L67.6798 9.096H67.5598V6.564H69.5278ZM87.2116 7.044V9.48H77.2396L76.8556 9.096H76.7356V0.659999H81.0916V0.779999L81.4756 1.164V6.564H86.8276V6.66L87.2116 7.044ZM86.6356 8.904V6.732H80.8996V0.852H76.9276V8.904H86.6356ZM81.0676 7.164H86.4676V8.736H77.3596V1.284H80.7316V6.9H80.8036L81.0676 7.164ZM88.8292 2.916L89.9212 3.936H89.9452L90.2332 4.2H91.7452L92.7892 3.204V1.284H96.1852V3.108L92.5132 6.444V8.736H89.1172V6.72L88.8532 6.48V6.432L85.4572 3.348V1.284H88.8292V2.916ZM85.0252 3.204L88.6852 6.528V8.904H92.6812V6.54L96.3532 3.204V0.852H92.3572V2.82L91.3612 3.768H90.0172L88.9972 2.82V0.852H85.0252V3.204ZM89.1892 0.779999L89.5732 1.164V3.18L90.0292 3.576H91.3492L92.1652 2.808V0.659999H96.5452V0.779999L96.9292 1.164V3.6L93.2572 6.948V9.48H88.9732L88.6132 9.096H88.4932V6.552L84.8332 3.216V0.659999H89.1892V0.779999ZM107.562 4.344H109.278L110.01 3.552H107.562V4.344ZM110.19 3.564L109.302 4.536H106.986V3H110.19V3.564ZM106.89 4.704L107.154 4.968H109.686L110.622 3.948V3.168L110.358 2.904V2.832H106.818V4.704H106.89ZM113.586 1.284L114.006 1.728V4.908L113.166 5.796H106.818V8.736H103.446V1.284H113.586ZM113.262 5.964L114.174 5.004V1.632L113.43 0.852H103.014V8.904H106.986V5.964H113.262ZM113.442 0.659999L114.366 1.62V1.644L114.75 2.028V5.424L113.682 6.54H107.562V9.48H103.326L102.942 9.096H102.822V0.659999H113.442ZM119.3 6.9L119.564 7.164H123.188V1.284H126.584V8.1L125.972 8.736H116.204L115.856 8.376V1.284H119.228V6.9H119.3ZM115.424 8.196L116.108 8.904H126.068L126.776 8.172L126.752 8.148V0.852H122.756V6.732H119.396V0.852H115.424V8.196ZM119.588 0.779999L119.972 1.164V6.564H122.564V0.659999H126.944V0.779999L127.328 1.164V8.604L126.476 9.48H116.516L116.156 9.096H116.108L115.232 8.196V0.659999H119.588V0.779999ZM138.81 1.164V3.42L134.55 6.564H138.426V6.66L138.81 7.044V9.48H128.31L127.926 9.096H127.806V6.708L132.042 3.552H128.31L127.902 3.168L127.878 3.192H127.806V0.659999H138.426V0.779999L138.81 1.164ZM127.998 8.904H138.234V6.732H133.098L138.234 2.964V0.852H127.998V3H133.11L127.998 6.792V8.904ZM133.674 2.832H128.43V1.284H138.066V2.856L132.558 6.9H132.774L133.038 7.164H138.066V8.736H128.43V7.188L133.818 3.192L133.542 2.916L133.674 2.832ZM150.294 1.164V3.42L146.034 6.564H149.91V6.66L150.294 7.044V9.48H139.794L139.41 9.096H139.29V6.708L143.526 3.552H139.794L139.386 3.168L139.362 3.192H139.29V0.659999H149.91V0.779999L150.294 1.164ZM139.482 8.904H149.718V6.732H144.582L149.718 2.964V0.852H139.482V3H144.594L139.482 6.792V8.904ZM145.158 2.832H139.914V1.284H149.55V2.856L144.042 6.9H144.258L144.522 7.164H149.55V8.736H139.914V7.188L145.302 3.192L145.026 2.916L145.158 2.832ZM161.251 7.044V9.48H151.279L150.895 9.096H150.775V0.659999H155.131V0.779999L155.515 1.164V6.564H160.867V6.66L161.251 7.044ZM160.675 8.904V6.732H154.939V0.852H150.967V8.904H160.675ZM155.107 7.164H160.507V8.736H151.399V1.284H154.771V6.9H154.843L155.107 7.164ZM165.728 5.184V6.9H165.8L166.064 7.164H172.076V8.736H162.356V1.284H172.076V2.832H165.728V4.068H165.8L166.064 4.332H172.064V5.184H165.728ZM165.896 3H172.244V0.852H161.924V8.904H172.244V6.732H165.896V5.352H172.232V3.9H165.896V3ZM166.472 5.904V6.564H172.436V6.66L172.82 7.044V9.48H162.236L161.852 9.096H161.732V0.659999H172.436V0.779999L172.82 1.164V3.528H166.472V3.708H172.424V3.828L172.808 4.212V5.904H166.472ZM183.452 4.344H185.324L186.056 3.552H183.452V4.344ZM186.236 3.564L185.348 4.536H182.876V3H186.236V3.564ZM182.78 4.704L183.044 4.968H185.732L186.668 3.948V3.168L186.404 2.904V2.832H182.708V4.704H182.78ZM186.404 5.868V5.796H182.708V8.736H179.336V1.284H189.644L190.064 1.728V3.816L189.032 4.908L190.052 5.928V8.736H186.668V6.132L186.404 5.868ZM186.236 8.904H190.22V5.832L189.296 4.908L190.232 3.9V1.632L189.488 0.852H178.904V8.904H182.876V5.964H186.236V8.904ZM189.5 0.659999L190.424 1.62V1.644L190.808 2.028V4.32L189.872 5.316L190.412 5.832V5.88L190.796 6.264V9.48H186.548L186.164 9.096H186.044V6.54H183.452V9.48H179.216L178.832 9.096H178.712V0.659999H189.5ZM198.618 3.552H196.026V4.344H198.618V3.552ZM195.45 4.536V3H198.81V4.536H195.45ZM198.978 2.904V2.832H195.282V4.704H195.354L195.618 4.968H199.242V3.168L198.978 2.904ZM198.978 5.796H195.282V8.736H191.91V1.908L192.546 1.284H202.302L202.638 1.608V8.736H199.242V6.132L198.978 5.868V5.796ZM198.81 8.904H202.806V1.512L202.098 0.827999L202.074 0.852H192.162L191.478 1.524V8.904H195.45V5.964H198.81V8.904ZM198.618 9.096V6.54H196.026V9.48H191.79L191.406 9.096H191.286V1.524L192.162 0.659999H202.122L202.998 1.512V1.56L203.382 1.932V9.48H199.122L198.738 9.096H198.618ZM207.857 2.832V6.9H207.929L208.193 7.164H214.145V8.736H204.833L204.485 8.376V1.92L205.121 1.284H214.145V2.832H207.857ZM204.053 8.196L204.737 8.904H214.313V6.732H208.025V3H214.313V0.852H204.737L204.053 1.536V8.196ZM208.601 3.552V6.564H214.505V6.66L214.889 7.044V9.48H205.145L204.785 9.096H204.737L203.861 8.196V1.536L204.737 0.659999H214.505V0.779999L214.889 1.164V3.552H208.601ZM219.364 5.184V6.9H219.436L219.7 7.164H225.712V8.736H215.992V1.284H225.712V2.832H219.364V4.068H219.436L219.7 4.332H225.7V5.184H219.364ZM219.532 3H225.88V0.852H215.56V8.904H225.88V6.732H219.532V5.352H225.868V3.9H219.532V3ZM220.108 5.904V6.564H226.072V6.66L226.456 7.044V9.48H215.872L215.488 9.096H215.368V0.659999H226.072V0.779999L226.456 1.164V3.528H220.108V3.708H226.06V3.828L226.444 4.212V5.904H220.108Z" fill="white"/>
</svg>
